<svg width="92" height="103" viewBox="0 0 92 103" fill="none" xmlns="http://www.w3.org/2000/svg">
<path d="M91.0677 72.0643C91.0677 73.9175 90.6263 75.6023 89.7435 77.1185C88.8607 78.6348 87.6174 79.8562 86.0135 80.7828L50.634 101.252C49.0335 102.179 47.3487 102.642 45.5798 102.642C43.8108 102.642 42.1261 102.179 40.5256 101.252L5.14602 80.7828C3.54551 79.8562 2.30386 78.6348 1.42106 77.1185C0.538252 75.6023 0.0951651 73.9175 0.0917955 72.0643L0.0917937 31.1251C0.0917937 29.2719 0.53488 27.5872 1.42105 26.0709C2.30723 24.5546 3.54888 23.3332 5.14601 22.4066L40.5255 1.93699C42.126 1.01039 43.8108 0.547087 45.5798 0.547087C47.3487 0.547087 49.0335 1.01039 50.634 1.93699L86.0135 22.4066C87.614 23.3332 88.8574 24.5546 89.7435 26.0709C90.6297 27.5872 91.0711 29.2719 91.0677 31.1251L91.0677 72.0643Z" fill="url(#paint0_linear_127_78)"/>
<path d="M91.0677 72.0643C91.0677 73.9175 90.6263 75.6023 89.7435 77.1185C88.8607 78.6348 87.6174 79.8562 86.0135 80.7828L50.634 101.252C49.0335 102.179 47.3487 102.642 45.5798 102.642C43.8108 102.642 42.1261 102.179 40.5256 101.252L5.14602 80.7828C3.54551 79.8562 2.30386 78.6348 1.42106 77.1185C0.538252 75.6023 0.0951651 73.9175 0.0917955 72.0643L0.0917937 31.1251C0.0917937 29.2719 0.53488 27.5872 1.42105 26.0709C2.30723 24.5546 3.54888 23.3332 5.14601 22.4066L40.5255 1.93699C42.126 1.01039 43.8108 0.547087 45.5798 0.547087C47.3487 0.547087 49.0335 1.01039 50.634 1.93699L86.0135 22.4066C87.614 23.3332 88.8574 24.5546 89.7435 26.0709C90.6297 27.5872 91.0711 29.2719 91.0677 31.1251L91.0677 72.0643Z" fill="#AA1B63"/>
<defs>
<linearGradient id="paint0_linear_127_78" x1="0.0917926" y1="22.7415" x2="91.0678" y2="75.2665" gradientUnits="userSpaceOnUse">
<stop stop-color="#DB2D69"/>
<stop offset="1" stop-color="#DB372D"/>
</linearGradient>
</defs>
</svg>
