<svg width="14" height="14" viewBox="0 0 14 14" fill="none" xmlns="http://www.w3.org/2000/svg">
<path d="M4.97763 0.0281372C6.29777 0.0281372 7.56385 0.552564 8.49734 1.48605C9.43082 2.41954 9.95525 3.68561 9.95525 5.00576C9.95525 6.24634 9.50344 7.37971 8.75296 8.24505L13.0797 12.5718L12.536 13.1155L8.20925 8.78876C7.30964 9.56074 6.16306 9.9846 4.97763 9.98339C3.65748 9.98339 2.3914 9.45896 1.45791 8.52548C0.524427 7.59199 0 6.32591 0 5.00576C0 3.68561 0.524427 2.41954 1.45791 1.48605C2.3914 0.552564 3.65748 0.0281372 4.97763 0.0281372ZM4.97763 0.793926C3.86058 0.793926 2.78928 1.23767 1.99941 2.02754C1.20953 2.81742 0.765789 3.88871 0.765789 5.00576C0.765789 6.12281 1.20953 7.19411 1.99941 7.98398C2.78928 8.77385 3.86058 9.2176 4.97763 9.2176C5.53073 9.2176 6.07842 9.10866 6.58943 8.89699C7.10043 8.68533 7.56474 8.37509 7.95584 7.98398C8.34695 7.59288 8.65719 7.12857 8.86886 6.61756C9.08052 6.10656 9.18946 5.55887 9.18946 5.00576C9.18946 4.45266 9.08052 3.90497 8.86886 3.39396C8.65719 2.88296 8.34695 2.41865 7.95584 2.02754C7.56474 1.63644 7.10043 1.3262 6.58943 1.11453C6.07842 0.902868 5.53073 0.793926 4.97763 0.793926Z" fill="#BABFC3"/>
</svg>
