<svg width="40" height="44" viewBox="0 0 40 44" fill="none" xmlns="http://www.w3.org/2000/svg">
<path d="M39.5297 30.565C39.5297 31.3571 39.3411 32.0771 38.9638 32.7251C38.5865 33.3731 38.0551 33.8952 37.3697 34.2912L22.2492 43.0395C21.5651 43.4355 20.8451 43.6335 20.0891 43.6335C19.3331 43.6335 18.613 43.4355 17.929 43.0395L2.80851 34.2912C2.12449 33.8952 1.59383 33.3731 1.21654 32.7251C0.839243 32.0771 0.649877 31.3571 0.648437 30.565L0.648436 13.0685C0.648436 12.2764 0.837802 11.5564 1.21653 10.9084C1.59527 10.2604 2.12593 9.73835 2.80851 9.34233L17.929 0.594039C18.613 0.198028 19.3331 2.20507e-05 20.0891 2.20168e-05C20.8451 2.1983e-05 21.5651 0.198028 22.2492 0.594039L37.3697 9.34233C38.0537 9.73835 38.5851 10.2604 38.9638 10.9084C39.3425 11.5564 39.5312 12.2764 39.5297 13.0685L39.5297 30.565Z" fill="url(#paint0_linear_188_172)"/>
<path d="M39.5297 30.565C39.5297 31.3571 39.3411 32.0771 38.9638 32.7251C38.5865 33.3731 38.0551 33.8952 37.3697 34.2912L22.2492 43.0395C21.5651 43.4355 20.8451 43.6335 20.0891 43.6335C19.3331 43.6335 18.613 43.4355 17.929 43.0395L2.80851 34.2912C2.12449 33.8952 1.59383 33.3731 1.21654 32.7251C0.839243 32.0771 0.649877 31.3571 0.648437 30.565L0.648436 13.0685C0.648436 12.2764 0.837802 11.5564 1.21653 10.9084C1.59527 10.2604 2.12593 9.73835 2.80851 9.34233L17.929 0.594039C18.613 0.198028 19.3331 2.20507e-05 20.0891 2.20168e-05C20.8451 2.1983e-05 21.5651 0.198028 22.2492 0.594039L37.3697 9.34233C38.0537 9.73835 38.5851 10.2604 38.9638 10.9084C39.3425 11.5564 39.5312 12.2764 39.5297 13.0685L39.5297 30.565Z" fill="#0059D7"/>
<path d="M20.4218 31.7807C18.8705 31.7807 17.5002 31.4619 16.3109 30.8241C15.1388 30.1691 14.2253 29.2642 13.5703 28.1094C12.9154 26.9546 12.5879 25.6446 12.5879 24.1795L12.5879 13.1656L17.19 13.1656L17.19 24.5157C17.19 25.1706 17.3278 25.7394 17.6036 26.222C17.8966 26.6874 18.2845 27.0494 18.7671 27.3079C19.2669 27.5492 19.8185 27.6699 20.4218 27.6699C21.0423 27.6699 21.5852 27.5492 22.0506 27.3079C22.516 27.0494 22.8865 26.6874 23.1623 26.222C23.4381 25.7567 23.576 25.1965 23.576 24.5415L23.576 13.1656L28.2298 13.1656L28.2298 24.2054C28.2298 25.6705 27.9023 26.9804 27.2473 28.1353C26.5923 29.2729 25.6788 30.1691 24.5067 30.8241C23.3519 31.4619 21.9902 31.7807 20.4218 31.7807Z" fill="white"/>
<defs>
<linearGradient id="paint0_linear_188_172" x1="0.648436" y1="9.48548" x2="39.5297" y2="31.9336" gradientUnits="userSpaceOnUse">
<stop stop-color="#DB2D69"/>
<stop offset="1" stop-color="#DB372D"/>
</linearGradient>
</defs>
</svg>
